<mxfile host="Electron" modified="2023-11-27T08:57:30.258Z" agent="Mozilla/5.0 (Windows NT 10.0; Win64; x64) AppleWebKit/537.36 (KHTML, like Gecko) draw.io/22.1.2 Chrome/114.0.5735.289 Electron/25.9.4 Safari/537.36" etag="-pzOR4jNUfMzUR6amSBk" version="22.1.2" type="device">
  <diagram name="Page-1" id="Fx9OJRU_9hpwQmQ2ElCQ">
    <mxGraphModel dx="864" dy="516" grid="1" gridSize="10" guides="1" tooltips="1" connect="1" arrows="1" fold="1" page="1" pageScale="1" pageWidth="827" pageHeight="1169" math="0" shadow="0">
      <root>
        <mxCell id="0" />
        <mxCell id="1" parent="0" />
        <mxCell id="WkJRtwEPfQy3AUgK6jLu-3" style="edgeStyle=orthogonalEdgeStyle;rounded=0;orthogonalLoop=1;jettySize=auto;html=1;exitX=0.5;exitY=1;exitDx=0;exitDy=0;entryX=0.5;entryY=0;entryDx=0;entryDy=0;labelBackgroundColor=none;fontColor=default;strokeColor=#A8201A;" parent="1" source="YQTKrfLITzyX-Zij0Rpi-2" target="WkJRtwEPfQy3AUgK6jLu-1" edge="1">
          <mxGeometry relative="1" as="geometry" />
        </mxCell>
        <mxCell id="YQTKrfLITzyX-Zij0Rpi-2" value="&lt;span style=&quot;font-size: 16px;&quot;&gt;When no loco&#39;s are available in station zone, station KAVACH keep Transmitting &lt;br&gt;regular&amp;nbsp;&lt;/span&gt;&lt;span style=&quot;background-color: initial; font-size: 16px;&quot;&gt;packet (P2 - P45)&lt;/span&gt;&lt;span style=&quot;font-size: 16px;&quot;&gt;&lt;br&gt;&lt;/span&gt;" style="rounded=0;whiteSpace=wrap;html=1;align=center;labelBackgroundColor=none;fillColor=#FAE5C7;strokeColor=#0F8B8D;fontColor=#143642;" parent="1" vertex="1">
          <mxGeometry x="241.25" y="180" width="320" height="80" as="geometry" />
        </mxCell>
        <mxCell id="YQTKrfLITzyX-Zij0Rpi-25" style="edgeStyle=orthogonalEdgeStyle;rounded=0;orthogonalLoop=1;jettySize=auto;html=1;exitX=0.5;exitY=1;exitDx=0;exitDy=0;entryX=0.5;entryY=0;entryDx=0;entryDy=0;labelBackgroundColor=none;fontColor=default;strokeColor=#A8201A;" parent="1" source="YQTKrfLITzyX-Zij0Rpi-3" target="YQTKrfLITzyX-Zij0Rpi-4" edge="1">
          <mxGeometry relative="1" as="geometry">
            <Array as="points">
              <mxPoint x="401" y="485" />
            </Array>
          </mxGeometry>
        </mxCell>
        <mxCell id="WkJRtwEPfQy3AUgK6jLu-25" style="edgeStyle=orthogonalEdgeStyle;rounded=0;orthogonalLoop=1;jettySize=auto;html=1;exitX=0;exitY=0.5;exitDx=0;exitDy=0;labelBackgroundColor=none;strokeColor=#A8201A;fontColor=default;" parent="1" source="YQTKrfLITzyX-Zij0Rpi-3" edge="1">
          <mxGeometry relative="1" as="geometry">
            <mxPoint x="180" y="480" as="targetPoint" />
          </mxGeometry>
        </mxCell>
        <mxCell id="YQTKrfLITzyX-Zij0Rpi-3" value="&lt;font style=&quot;font-size: 16px;&quot;&gt;Received loco &lt;br&gt;ARP packet&lt;/font&gt;" style="rhombus;whiteSpace=wrap;html=1;labelBackgroundColor=none;fillColor=#FAE5C7;strokeColor=#0F8B8D;fontColor=#143642;" parent="1" vertex="1">
          <mxGeometry x="321.25" y="400" width="160" height="160" as="geometry" />
        </mxCell>
        <mxCell id="YQTKrfLITzyX-Zij0Rpi-13" style="edgeStyle=orthogonalEdgeStyle;rounded=0;orthogonalLoop=1;jettySize=auto;html=1;exitX=0.5;exitY=1;exitDx=0;exitDy=0;entryX=0.5;entryY=0;entryDx=0;entryDy=0;labelBackgroundColor=none;fontColor=default;strokeColor=#A8201A;" parent="1" source="YQTKrfLITzyX-Zij0Rpi-4" target="YQTKrfLITzyX-Zij0Rpi-7" edge="1">
          <mxGeometry relative="1" as="geometry">
            <Array as="points">
              <mxPoint x="400" y="720" />
            </Array>
          </mxGeometry>
        </mxCell>
        <mxCell id="YQTKrfLITzyX-Zij0Rpi-18" style="edgeStyle=orthogonalEdgeStyle;rounded=0;orthogonalLoop=1;jettySize=auto;html=1;exitX=0;exitY=0.5;exitDx=0;exitDy=0;labelBackgroundColor=none;fontColor=default;strokeColor=#A8201A;" parent="1" source="YQTKrfLITzyX-Zij0Rpi-4" edge="1">
          <mxGeometry relative="1" as="geometry">
            <mxPoint x="400" y="160" as="targetPoint" />
            <Array as="points">
              <mxPoint x="181" y="670" />
              <mxPoint x="181" y="160" />
            </Array>
          </mxGeometry>
        </mxCell>
        <mxCell id="YQTKrfLITzyX-Zij0Rpi-4" value="&lt;font style=&quot;font-size: 16px;&quot;&gt;CBC - MAC valid&lt;/font&gt;" style="rhombus;whiteSpace=wrap;html=1;labelBackgroundColor=none;fillColor=#FAE5C7;strokeColor=#0F8B8D;fontColor=#143642;" parent="1" vertex="1">
          <mxGeometry x="321.25" y="590" width="157.5" height="160" as="geometry" />
        </mxCell>
        <mxCell id="YQTKrfLITzyX-Zij0Rpi-5" value="&lt;h1&gt;STATION KAVACH FLOWCHART&lt;/h1&gt;" style="text;html=1;strokeColor=none;fillColor=none;spacing=5;spacingTop=-20;whiteSpace=wrap;overflow=hidden;rounded=0;align=center;labelBackgroundColor=none;fontColor=#143642;" parent="1" vertex="1">
          <mxGeometry x="30" y="27" width="760" height="43" as="geometry" />
        </mxCell>
        <mxCell id="YQTKrfLITzyX-Zij0Rpi-15" style="edgeStyle=orthogonalEdgeStyle;rounded=0;orthogonalLoop=1;jettySize=auto;html=1;exitX=0.5;exitY=1;exitDx=0;exitDy=0;entryX=0.5;entryY=0;entryDx=0;entryDy=0;labelBackgroundColor=none;fontColor=default;strokeColor=#A8201A;" parent="1" source="YQTKrfLITzyX-Zij0Rpi-7" target="YQTKrfLITzyX-Zij0Rpi-14" edge="1">
          <mxGeometry relative="1" as="geometry" />
        </mxCell>
        <mxCell id="YQTKrfLITzyX-Zij0Rpi-7" value="&lt;font style=&quot;font-size: 16px;&quot;&gt;Station KAVACH Issues AAP packet (P57,P58,P69,P70) to particular &lt;br&gt;loco KAVACH and allocates frequency channel and time slot to Loco KAVACH&lt;/font&gt;" style="rounded=0;whiteSpace=wrap;html=1;labelBackgroundColor=none;fillColor=#FAE5C7;strokeColor=#0F8B8D;fontColor=#143642;" parent="1" vertex="1">
          <mxGeometry x="241.25" y="800" width="320" height="150" as="geometry" />
        </mxCell>
        <mxCell id="YQTKrfLITzyX-Zij0Rpi-14" value="&lt;b&gt;&lt;font style=&quot;font-size: 16px;&quot;&gt;A&lt;/font&gt;&lt;/b&gt;" style="ellipse;whiteSpace=wrap;html=1;aspect=fixed;labelBackgroundColor=none;fillColor=#FAE5C7;strokeColor=#0F8B8D;fontColor=#143642;" parent="1" vertex="1">
          <mxGeometry x="376.25" y="1030" width="50" height="50" as="geometry" />
        </mxCell>
        <mxCell id="YQTKrfLITzyX-Zij0Rpi-23" value="&lt;font style=&quot;font-size: 16px;&quot;&gt;No&lt;/font&gt;" style="text;html=1;align=center;verticalAlign=middle;resizable=0;points=[];autosize=1;strokeColor=none;fillColor=none;labelBackgroundColor=none;fontColor=#143642;" parent="1" vertex="1">
          <mxGeometry x="285" y="440" width="40" height="30" as="geometry" />
        </mxCell>
        <mxCell id="YQTKrfLITzyX-Zij0Rpi-24" value="&lt;font style=&quot;font-size: 16px;&quot;&gt;No&lt;/font&gt;" style="text;html=1;align=center;verticalAlign=middle;resizable=0;points=[];autosize=1;strokeColor=none;fillColor=none;labelBackgroundColor=none;fontColor=#143642;" parent="1" vertex="1">
          <mxGeometry x="281.25" y="640" width="40" height="30" as="geometry" />
        </mxCell>
        <mxCell id="YQTKrfLITzyX-Zij0Rpi-31" style="edgeStyle=orthogonalEdgeStyle;rounded=0;orthogonalLoop=1;jettySize=auto;html=1;exitX=0.5;exitY=1;exitDx=0;exitDy=0;entryX=0.5;entryY=0;entryDx=0;entryDy=0;labelBackgroundColor=none;fontColor=default;strokeColor=#A8201A;" parent="1" source="YQTKrfLITzyX-Zij0Rpi-26" target="YQTKrfLITzyX-Zij0Rpi-30" edge="1">
          <mxGeometry relative="1" as="geometry" />
        </mxCell>
        <mxCell id="YQTKrfLITzyX-Zij0Rpi-26" value="&lt;font style=&quot;font-size: 16px;&quot;&gt;Station KAVACH keep on sending AAP until valid reply from LOCO&lt;/font&gt;" style="rounded=0;whiteSpace=wrap;html=1;labelBackgroundColor=none;fillColor=#FAE5C7;strokeColor=#0F8B8D;fontColor=#143642;" parent="1" vertex="1">
          <mxGeometry x="240" y="1320" width="320" height="80" as="geometry" />
        </mxCell>
        <mxCell id="YQTKrfLITzyX-Zij0Rpi-29" style="edgeStyle=orthogonalEdgeStyle;rounded=0;orthogonalLoop=1;jettySize=auto;html=1;exitX=0.5;exitY=1;exitDx=0;exitDy=0;entryX=0.5;entryY=0;entryDx=0;entryDy=0;labelBackgroundColor=none;fontColor=default;strokeColor=#A8201A;" parent="1" source="YQTKrfLITzyX-Zij0Rpi-28" target="YQTKrfLITzyX-Zij0Rpi-26" edge="1">
          <mxGeometry relative="1" as="geometry">
            <Array as="points">
              <mxPoint x="400" y="1240" />
            </Array>
          </mxGeometry>
        </mxCell>
        <mxCell id="YQTKrfLITzyX-Zij0Rpi-28" value="&lt;b&gt;&lt;font style=&quot;font-size: 16px;&quot;&gt;A&lt;/font&gt;&lt;/b&gt;" style="ellipse;whiteSpace=wrap;html=1;aspect=fixed;labelBackgroundColor=none;fillColor=#FAE5C7;strokeColor=#0F8B8D;fontColor=#143642;" parent="1" vertex="1">
          <mxGeometry x="375" y="1200" width="50" height="50" as="geometry" />
        </mxCell>
        <mxCell id="WkJRtwEPfQy3AUgK6jLu-7" style="edgeStyle=orthogonalEdgeStyle;rounded=0;orthogonalLoop=1;jettySize=auto;html=1;exitX=0;exitY=0.5;exitDx=0;exitDy=0;labelBackgroundColor=none;fontColor=default;strokeColor=#A8201A;" parent="1" source="YQTKrfLITzyX-Zij0Rpi-30" edge="1">
          <mxGeometry relative="1" as="geometry">
            <mxPoint x="400" y="1270" as="targetPoint" />
            <Array as="points">
              <mxPoint x="191" y="1520" />
            </Array>
          </mxGeometry>
        </mxCell>
        <mxCell id="WkJRtwEPfQy3AUgK6jLu-9" style="edgeStyle=orthogonalEdgeStyle;rounded=0;orthogonalLoop=1;jettySize=auto;html=1;exitX=0.5;exitY=1;exitDx=0;exitDy=0;entryX=0.5;entryY=0;entryDx=0;entryDy=0;labelBackgroundColor=none;fontColor=default;strokeColor=#A8201A;" parent="1" source="YQTKrfLITzyX-Zij0Rpi-30" target="YQTKrfLITzyX-Zij0Rpi-37" edge="1">
          <mxGeometry relative="1" as="geometry" />
        </mxCell>
        <mxCell id="YQTKrfLITzyX-Zij0Rpi-30" value="&lt;font style=&quot;font-size: 16px;&quot;&gt;&lt;br&gt;Reply received&lt;br&gt;from loco&lt;br&gt;KAVACH&lt;/font&gt;" style="rhombus;whiteSpace=wrap;html=1;labelBackgroundColor=none;fillColor=#FAE5C7;strokeColor=#0F8B8D;fontColor=#143642;" parent="1" vertex="1">
          <mxGeometry x="325" y="1440" width="150" height="160" as="geometry" />
        </mxCell>
        <mxCell id="YQTKrfLITzyX-Zij0Rpi-35" value="&lt;font style=&quot;font-size: 16px;&quot;&gt;No&lt;/font&gt;" style="text;html=1;align=center;verticalAlign=middle;resizable=0;points=[];autosize=1;strokeColor=none;fillColor=none;labelBackgroundColor=none;fontColor=#143642;" parent="1" vertex="1">
          <mxGeometry x="280" y="1488" width="40" height="30" as="geometry" />
        </mxCell>
        <mxCell id="YQTKrfLITzyX-Zij0Rpi-36" value="&lt;font style=&quot;font-size: 16px;&quot;&gt;Yes&lt;/font&gt;" style="text;html=1;align=center;verticalAlign=middle;resizable=0;points=[];autosize=1;strokeColor=none;fillColor=none;labelBackgroundColor=none;fontColor=#143642;" parent="1" vertex="1">
          <mxGeometry x="400" y="1600" width="50" height="30" as="geometry" />
        </mxCell>
        <mxCell id="WkJRtwEPfQy3AUgK6jLu-10" style="edgeStyle=orthogonalEdgeStyle;rounded=0;orthogonalLoop=1;jettySize=auto;html=1;exitX=0.5;exitY=1;exitDx=0;exitDy=0;entryX=0.5;entryY=0;entryDx=0;entryDy=0;labelBackgroundColor=none;fontColor=default;strokeColor=#A8201A;" parent="1" source="YQTKrfLITzyX-Zij0Rpi-37" target="WkJRtwEPfQy3AUgK6jLu-8" edge="1">
          <mxGeometry relative="1" as="geometry" />
        </mxCell>
        <mxCell id="YQTKrfLITzyX-Zij0Rpi-37" value="&lt;font style=&quot;font-size: 16px;&quot;&gt;Station KAVACH stop sending AAP to loco&lt;/font&gt;" style="rounded=0;whiteSpace=wrap;html=1;labelBackgroundColor=none;fillColor=#FAE5C7;strokeColor=#0F8B8D;fontColor=#143642;" parent="1" vertex="1">
          <mxGeometry x="240" y="1640" width="320" height="80" as="geometry" />
        </mxCell>
        <mxCell id="YQTKrfLITzyX-Zij0Rpi-41" value="&lt;font style=&quot;font-size: 16px;&quot;&gt;Yes&lt;/font&gt;" style="text;html=1;align=center;verticalAlign=middle;resizable=0;points=[];autosize=1;strokeColor=none;fillColor=none;labelBackgroundColor=none;fontColor=#143642;" parent="1" vertex="1">
          <mxGeometry x="400" y="560" width="50" height="30" as="geometry" />
        </mxCell>
        <mxCell id="WkJRtwEPfQy3AUgK6jLu-4" style="edgeStyle=orthogonalEdgeStyle;rounded=0;orthogonalLoop=1;jettySize=auto;html=1;exitX=0.5;exitY=1;exitDx=0;exitDy=0;entryX=0.5;entryY=0;entryDx=0;entryDy=0;labelBackgroundColor=none;fontColor=default;strokeColor=#A8201A;" parent="1" source="WkJRtwEPfQy3AUgK6jLu-1" target="YQTKrfLITzyX-Zij0Rpi-3" edge="1">
          <mxGeometry relative="1" as="geometry" />
        </mxCell>
        <mxCell id="WkJRtwEPfQy3AUgK6jLu-1" value="&lt;font style=&quot;font-size: 16px;&quot;&gt;Continuously polls for loco KAVACH packet&amp;nbsp;&lt;/font&gt;" style="rounded=0;whiteSpace=wrap;html=1;labelBackgroundColor=none;fillColor=#FAE5C7;strokeColor=#0F8B8D;fontColor=#143642;" parent="1" vertex="1">
          <mxGeometry x="241.25" y="300" width="320" height="60" as="geometry" />
        </mxCell>
        <mxCell id="WkJRtwEPfQy3AUgK6jLu-6" value="&lt;font style=&quot;font-size: 16px;&quot;&gt;Yes&lt;/font&gt;" style="text;html=1;align=center;verticalAlign=middle;resizable=0;points=[];autosize=1;strokeColor=none;fillColor=none;labelBackgroundColor=none;fontColor=#143642;" parent="1" vertex="1">
          <mxGeometry x="400" y="750" width="50" height="30" as="geometry" />
        </mxCell>
        <mxCell id="WkJRtwEPfQy3AUgK6jLu-17" style="edgeStyle=orthogonalEdgeStyle;rounded=0;orthogonalLoop=1;jettySize=auto;html=1;exitX=0.5;exitY=1;exitDx=0;exitDy=0;entryX=0.5;entryY=0;entryDx=0;entryDy=0;labelBackgroundColor=none;fontColor=default;strokeColor=#A8201A;" parent="1" source="WkJRtwEPfQy3AUgK6jLu-8" target="WkJRtwEPfQy3AUgK6jLu-11" edge="1">
          <mxGeometry relative="1" as="geometry" />
        </mxCell>
        <mxCell id="WkJRtwEPfQy3AUgK6jLu-8" value="&lt;font style=&quot;font-size: 16px;&quot;&gt;Hand shaking of data in regular Packet between station and loco&lt;/font&gt;" style="rounded=0;whiteSpace=wrap;html=1;labelBackgroundColor=none;fillColor=#FAE5C7;strokeColor=#0F8B8D;fontColor=#143642;" parent="1" vertex="1">
          <mxGeometry x="240" y="1800" width="320" height="80" as="geometry" />
        </mxCell>
        <mxCell id="WkJRtwEPfQy3AUgK6jLu-15" style="edgeStyle=orthogonalEdgeStyle;rounded=0;orthogonalLoop=1;jettySize=auto;html=1;exitX=1;exitY=0.5;exitDx=0;exitDy=0;labelBackgroundColor=none;fontColor=default;strokeColor=#A8201A;" parent="1" source="WkJRtwEPfQy3AUgK6jLu-11" target="WkJRtwEPfQy3AUgK6jLu-14" edge="1">
          <mxGeometry relative="1" as="geometry" />
        </mxCell>
        <mxCell id="WkJRtwEPfQy3AUgK6jLu-18" style="edgeStyle=orthogonalEdgeStyle;rounded=0;orthogonalLoop=1;jettySize=auto;html=1;exitX=0;exitY=0.5;exitDx=0;exitDy=0;labelBackgroundColor=none;fontColor=default;strokeColor=#A8201A;" parent="1" source="WkJRtwEPfQy3AUgK6jLu-11" edge="1">
          <mxGeometry relative="1" as="geometry">
            <mxPoint x="400" y="1760" as="targetPoint" />
            <Array as="points">
              <mxPoint x="141" y="2000" />
            </Array>
          </mxGeometry>
        </mxCell>
        <mxCell id="WkJRtwEPfQy3AUgK6jLu-11" value="&lt;font style=&quot;font-size: 16px;&quot;&gt;Loco left station section&lt;/font&gt;" style="rhombus;whiteSpace=wrap;html=1;labelBackgroundColor=none;fillColor=#FAE5C7;strokeColor=#0F8B8D;fontColor=#143642;" parent="1" vertex="1">
          <mxGeometry x="320" y="1930" width="160" height="140" as="geometry" />
        </mxCell>
        <mxCell id="WkJRtwEPfQy3AUgK6jLu-24" style="edgeStyle=orthogonalEdgeStyle;rounded=0;orthogonalLoop=1;jettySize=auto;html=1;exitX=0;exitY=0.5;exitDx=0;exitDy=0;labelBackgroundColor=none;fontColor=default;strokeColor=#A8201A;" parent="1" source="WkJRtwEPfQy3AUgK6jLu-12" edge="1">
          <mxGeometry relative="1" as="geometry">
            <mxPoint x="400" y="160" as="targetPoint" />
          </mxGeometry>
        </mxCell>
        <mxCell id="WkJRtwEPfQy3AUgK6jLu-12" value="&lt;font style=&quot;font-size: 16px;&quot;&gt;Repeat&lt;/font&gt;" style="ellipse;whiteSpace=wrap;html=1;aspect=fixed;labelBackgroundColor=none;fillColor=#FAE5C7;strokeColor=#0F8B8D;fontColor=#143642;" parent="1" vertex="1">
          <mxGeometry x="580" y="130" width="60" height="60" as="geometry" />
        </mxCell>
        <mxCell id="WkJRtwEPfQy3AUgK6jLu-14" value="&lt;font style=&quot;font-size: 16px;&quot;&gt;Repeat&lt;/font&gt;" style="ellipse;whiteSpace=wrap;html=1;aspect=fixed;labelBackgroundColor=none;fillColor=#FAE5C7;strokeColor=#0F8B8D;fontColor=#143642;" parent="1" vertex="1">
          <mxGeometry x="600" y="1970" width="60" height="60" as="geometry" />
        </mxCell>
        <mxCell id="WkJRtwEPfQy3AUgK6jLu-16" value="&lt;font style=&quot;font-size: 16px;&quot;&gt;Yes&lt;/font&gt;" style="text;html=1;align=center;verticalAlign=middle;resizable=0;points=[];autosize=1;strokeColor=none;fillColor=none;labelBackgroundColor=none;fontColor=#143642;" parent="1" vertex="1">
          <mxGeometry x="475" y="1970" width="50" height="30" as="geometry" />
        </mxCell>
        <mxCell id="WkJRtwEPfQy3AUgK6jLu-19" value="&lt;font style=&quot;font-size: 16px;&quot;&gt;No&lt;/font&gt;" style="text;html=1;align=center;verticalAlign=middle;resizable=0;points=[];autosize=1;strokeColor=none;fillColor=none;labelBackgroundColor=none;fontColor=#143642;" parent="1" vertex="1">
          <mxGeometry x="280" y="1968" width="40" height="30" as="geometry" />
        </mxCell>
        <mxCell id="WkJRtwEPfQy3AUgK6jLu-21" style="edgeStyle=orthogonalEdgeStyle;rounded=0;orthogonalLoop=1;jettySize=auto;html=1;exitX=0.5;exitY=1;exitDx=0;exitDy=0;entryX=0.5;entryY=0;entryDx=0;entryDy=0;labelBackgroundColor=none;fontColor=default;strokeColor=#A8201A;" parent="1" source="WkJRtwEPfQy3AUgK6jLu-20" target="YQTKrfLITzyX-Zij0Rpi-2" edge="1">
          <mxGeometry relative="1" as="geometry" />
        </mxCell>
        <mxCell id="WkJRtwEPfQy3AUgK6jLu-20" value="&lt;span style=&quot;font-size: 16px;&quot;&gt;START&lt;/span&gt;" style="ellipse;whiteSpace=wrap;html=1;labelBackgroundColor=none;fillColor=#FAE5C7;strokeColor=#0F8B8D;fontColor=#143642;" parent="1" vertex="1">
          <mxGeometry x="340" y="90" width="120" height="40" as="geometry" />
        </mxCell>
        <mxCell id="WkJRtwEPfQy3AUgK6jLu-26" value="&lt;font style=&quot;font-size: 16px;&quot;&gt;&lt;b&gt;&amp;nbsp;ARP :&amp;nbsp; &lt;/b&gt;Access Request Packet&lt;br&gt;&lt;b&gt;&amp;nbsp; AAP :&amp;nbsp; &lt;/b&gt;Access Authority Packet&lt;/font&gt;" style="text;html=1;strokeColor=none;fillColor=none;align=center;verticalAlign=middle;whiteSpace=wrap;rounded=0;fontColor=#143642;" parent="1" vertex="1">
          <mxGeometry x="478.75" y="2200" width="319" height="120" as="geometry" />
        </mxCell>
        <mxCell id="YbAWiEE5yzwqmZ7UAMjj-1" value="&lt;h1&gt;&lt;font style=&quot;font-size: 18px;&quot;&gt;STATION KAVACH Transmitting Packets&lt;/font&gt;&lt;/h1&gt;&lt;div style=&quot;font-size: 16px;&quot;&gt;&lt;ol&gt;&lt;li&gt;&lt;font style=&quot;font-size: 16px;&quot;&gt;AAP&amp;nbsp; packet (P57,P58,P69,P70 in f&lt;sub&gt;0&lt;/sub&gt;)&lt;/font&gt;&lt;/li&gt;&lt;li&gt;&lt;font style=&quot;font-size: 16px;&quot;&gt;Regular packet (P2 to P45)&lt;/font&gt;&lt;/li&gt;&lt;li&gt;&lt;font style=&quot;font-size: 16px;&quot;&gt;Emergency packet (P55,P56,P67,P68 in f&lt;sub&gt;0&lt;/sub&gt;)&lt;/font&gt;&lt;/li&gt;&lt;li&gt;&lt;font style=&quot;font-size: 16px;&quot;&gt;Static speed profile (P2 to P45)&lt;/font&gt;&lt;/li&gt;&lt;/ol&gt;&lt;/div&gt;&lt;h1 style=&quot;&quot;&gt;&lt;font style=&quot;font-size: 18px;&quot;&gt;STATION KAVACH Receving Packets&lt;/font&gt;&lt;/h1&gt;&lt;div style=&quot;font-size: 16px;&quot;&gt;&lt;ol&gt;&lt;li&gt;&lt;font style=&quot;font-size: 16px;&quot;&gt;Receives ARP from Loco KAVACH (P47 - P52, P59 - P64 in f&lt;sub&gt;0&lt;/sub&gt;)&lt;/font&gt;&lt;/li&gt;&lt;li&gt;&lt;font style=&quot;font-size: 16px;&quot;&gt;Receives emergency message from Loco KAVACH (P53,P54,P65,P66 in f&lt;sub&gt;0&lt;/sub&gt;)&lt;/font&gt;&lt;/li&gt;&lt;li&gt;&lt;font style=&quot;font-size: 16px;&quot;&gt;Receives regular packets from Loco KAVACH (P2 to P45)&lt;/font&gt;&lt;/li&gt;&lt;li&gt;&lt;font style=&quot;font-size: 16px;&quot;&gt;Receives Block section packet from Loco KAVACH (P2 to P45)&lt;/font&gt;&lt;/li&gt;&lt;/ol&gt;&lt;/div&gt;" style="text;html=1;strokeColor=none;fillColor=none;spacing=5;spacingTop=-20;whiteSpace=wrap;overflow=hidden;rounded=0;fontColor=#143642;" parent="1" vertex="1">
          <mxGeometry x="80" y="2440" width="680" height="340" as="geometry" />
        </mxCell>
      </root>
    </mxGraphModel>
  </diagram>
</mxfile>
